HIERARCHY
ROOT Hips
{
	OFFSET	0.00	0.00	0.00
	CHANNELS 6 Xposition Yposition Zposition Zrotation Xrotation Yrotation
	JOINT LeftUpLeg
	{
		OFFSET	 0.126116	-0.014019	-0.065224
		CHANNELS 3 Zrotation Xrotation Yrotation
		JOINT LeftLeg
		{
			OFFSET	 0.000000	 0.000000	 0.569914
			CHANNELS 3 Zrotation Xrotation Yrotation
			JOINT LeftFoot
			{
				OFFSET	 0.000000	 0.000000	 0.544423
				CHANNELS 3 Zrotation Xrotation Yrotation
				JOINT LeftToeBase
				{
					OFFSET	 0.000000	 0.000000	 0.207117
					CHANNELS 3 Zrotation Xrotation Yrotation
					End Site
					{
						OFFSET	 0.000000	 0.000000	 0.207117
					}
				}
			}
		}
	}
	JOINT RightUpLeg
	{
		OFFSET	-0.124023	-0.008373	-0.065224
		CHANNELS 3 Zrotation Xrotation Yrotation
		JOINT RightLeg
		{
			OFFSET	 0.000000	 0.000000	 0.570047
			CHANNELS 3 Zrotation Xrotation Yrotation
			JOINT RightFoot
			{
				OFFSET	 0.000000	 0.000000	 0.544354
				CHANNELS 3 Zrotation Xrotation Yrotation
				JOINT RightToeBase
				{
					OFFSET	 0.000000	 0.000000	 0.207540
					CHANNELS 3 Zrotation Xrotation Yrotation
					End Site
					{
						OFFSET	 0.000000	 0.000000	 0.207540
					}
				}
			}
		}
	}
	JOINT Spine
	{
		OFFSET	 0.000184	-0.007763	 0.117403
		CHANNELS 3 Zrotation Xrotation Yrotation
		JOINT Spine1
		{
			OFFSET	 0.000000	 0.000000	 0.137269
			CHANNELS 3 Zrotation Xrotation Yrotation
			JOINT Spine2
			{
				OFFSET	 0.000000	 0.000000	 0.156879
				CHANNELS 3 Zrotation Xrotation Yrotation
				JOINT LeftShoulder
				{
					OFFSET	 0.080501	-0.002496	 0.160144
					CHANNELS 3 Zrotation Xrotation Yrotation
					JOINT LeftArm
					{
						OFFSET	 0.000000	 0.000000	 0.164363
						CHANNELS 3 Zrotation Xrotation Yrotation
						JOINT LeftForeArm
						{
							OFFSET	 0.000000	 0.000000	 0.364576
							CHANNELS 3 Zrotation Xrotation Yrotation
							JOINT LeftHand
							{
								OFFSET	 0.000000	 0.000000	 0.360812
								CHANNELS 3 Zrotation Xrotation Yrotation
								JOINT LeftHandIndex1
								{
									OFFSET	 0.000000	 0.000000	 0.086006
									CHANNELS 3 Zrotation Xrotation Yrotation
									JOINT LeftHandIndex2
									{
										OFFSET	 0.000000	 0.000000	 0.047237
										CHANNELS 3 Zrotation Xrotation Yrotation
										JOINT LeftHandIndex3
										{
											OFFSET	-0.004284	-0.000551	 0.038165
											CHANNELS 3 Zrotation Xrotation Yrotation
											End Site
											{
												OFFSET	-0.004284	-0.000551	 0.038165
											}
										}
									}
								}
							}
						}
					}
				}
				JOINT Neck
				{
					OFFSET	 0.000000	 0.000000	 0.176489
					CHANNELS 3 Zrotation Xrotation Yrotation
					JOINT Head
					{
						OFFSET	 0.000000	-0.001747	 0.077940
						CHANNELS 3 Zrotation Xrotation Yrotation
						End Site
						{
							OFFSET	 0.000000	-0.001747	 0.077940
						}
					}
				}
				JOINT RightShoulder
				{
					OFFSET	-0.080363	 0.000306	 0.159706
					CHANNELS 3 Zrotation Xrotation Yrotation
					JOINT RightArm
					{
						OFFSET	 0.000000	 0.000000	 0.164196
						CHANNELS 3 Zrotation Xrotation Yrotation
						JOINT RightForeArm
						{
							OFFSET	 0.000000	 0.000000	 0.365611
							CHANNELS 3 Zrotation Xrotation Yrotation
							JOINT RightHand
							{
								OFFSET	 0.000000	 0.000000	 0.360648
								CHANNELS 3 Zrotation Xrotation Yrotation
								JOINT RightHandIndex1
								{
									OFFSET	 0.000000	 0.000000	 0.069977
									CHANNELS 3 Zrotation Xrotation Yrotation
									JOINT RightHandIndex2
									{
										OFFSET	 0.000000	 0.000000	 0.052305
										CHANNELS 3 Zrotation Xrotation Yrotation
										JOINT RightHandIndex3
										{
											OFFSET	 0.009002	-0.000782	 0.042196
											CHANNELS 3 Zrotation Xrotation Yrotation
											End Site
											{
												OFFSET	 0.009002	-0.000782	 0.042196
											}
										}
									}
								}
							}
						}
					}
				}
			}
		}
	}
}
MOTION
Frames:    5
Frame Time: 0.03333334
-0.643997	-0.129648	 1.248330	-161.388200	 7.268595	 9.669118	 1.773901	-12.358040	 163.932200	-9.065050	-32.171120	-3.801273	-87.929780	 80.264130	 83.776810	-2.385833	 28.452760	 0.000004	 20.747900	-49.287730	-176.212500	-28.011090	-58.577900	-14.719050	 33.478040	 39.251480	-42.197500	 2.384659	 28.388700	-0.000001	 27.784070	-18.019590	-16.034510	 46.182460	 26.035150	 0.860759	-7.116038	-3.106382	-3.281530	-91.776180	 78.527420	-180.000000	 16.831310	 44.258850	-41.870600	-5.713413	-0.080680	-0.490973	 8.314643	 1.110742	-4.238352	-4.131196	 21.524690	 0.986298	-5.167839	 0.733520	 3.519257	-1.378229	 35.397820	-2.634230	-14.006820	 16.433790	-7.820219	-25.948320	 3.491700	 5.447431	 89.782140	 78.203850	 179.999900	 4.884538	 60.053760	 2.230253	-4.614528	-0.141344	 0.449856	 99.272920	-18.131880	-5.103145	 5.715225	 19.176060	-3.692089	 5.027514	 0.245388	-9.378011	-2.350882	 35.473990	 5.254307
-0.643484	-0.127533	 1.249269	-161.781000	 6.936097	 9.625071	 3.525559	-12.019730	 163.906300	-8.719619	-31.690340	-3.567201	-108.516300	 81.845150	 103.473900	-2.385833	 28.452760	 0.000004	 20.230780	-48.834060	-176.493300	-22.521770	-58.999970	-9.997701	 47.001900	 47.688820	-49.479480	 2.384659	 28.388700	-0.000001	 27.231380	-20.059540	-17.408590	 46.952600	 29.999770	-1.030458	-7.158683	-4.751172	-2.695253	-91.776180	 78.527400	 180.000000	 16.795990	 44.213650	-41.918260	-4.992890	-0.086785	-0.489720	 8.936999	 1.473856	-4.477110	-4.131196	 21.524690	 0.986298	-5.167839	 0.733520	 3.519257	-1.378229	 35.397820	-2.634230	-14.019480	 16.216980	-7.729447	-25.974800	 3.374456	 5.045140	 89.782080	 78.203900	 180.000000	 4.792411	 60.149290	 2.489391	-5.842287	-0.150708	 0.445999	 99.218770	-15.506200	-2.603313	 5.715225	 19.176060	-3.692089	 5.027514	 0.245388	-9.378011	-2.350882	 35.473990	 5.254307
-0.640878	-0.126061	 1.249343	-163.201900	 7.444047	 10.111840	 5.643094	-12.838000	 163.415200	-7.802589	-31.666030	-3.079058	-119.701800	 81.373860	 113.725700	-2.385833	 28.452760	 0.000004	 17.888760	-49.675880	-177.851300	-19.305500	-58.553120	-7.184696	 49.855860	 51.282770	-49.817350	 2.384659	 28.388700	-0.000001	 28.601440	-19.774070	-17.804270	 46.504520	 29.158310	 1.141431	-7.131302	-3.955459	-3.388566	-91.776180	 78.527430	-180.000000	 16.545370	 44.121600	-41.772530	-4.229331	-0.093378	-0.488221	 9.451881	 1.761504	-4.700138	-4.131196	 21.524690	 0.986298	-5.167839	 0.733520	 3.519257	-1.378229	 35.397820	-2.634230	-14.007500	 16.547820	-7.702049	-25.902840	 3.099584	 4.813645	 89.782100	 78.203830	 180.000000	 4.537903	 60.438590	 2.866809	-7.234171	-0.161805	 0.443044	 97.107630	-16.583160	-1.428437	 5.715225	 19.176060	-3.692089	 5.027514	 0.245388	-9.378011	-2.350882	 35.473990	 5.254307
-0.637378	-0.122821	 1.249313	-164.025800	 8.040327	 9.449754	 7.251196	-13.061790	 164.146300	-6.189204	-31.002360	-2.185334	-151.516600	 80.356920	 143.593200	-2.385833	 28.452760	 0.000004	 20.340050	-49.583280	-175.790000	-18.065490	-58.082860	-6.090782	 56.976130	 53.648610	-54.936870	 2.384659	 28.388700	-0.000001	 29.602460	-20.065780	-16.844360	 46.370380	 29.492760	 1.730922	-7.050265	-3.972177	-3.999471	-91.776190	 78.527360	-180.000000	 16.490820	 44.128330	-41.847500	-3.607852	-0.098783	-0.488554	 9.925592	 2.064970	-4.921310	-4.131196	 21.524690	 0.986298	-5.167839	 0.733520	 3.519257	-1.378229	 35.397820	-2.634230	-13.828270	 17.033440	-7.860034	-25.794880	 3.039787	 5.414351	 89.782100	 78.203890	 180.000000	 3.437860	 60.509990	 4.165108	-8.448021	-0.171064	 0.439231	 95.123250	-16.935840	-0.058040	 5.715225	 19.176060	-3.692089	 5.027514	 0.245388	-9.378011	-2.350882	 35.473990	 5.254307
-0.632636	-0.116290	 1.249419	-163.445000	 8.155008	 6.766607	 8.437593	-11.488510	 166.758900	-4.439976	-28.843930	-1.200780	 172.260300	 75.321560	 178.047100	-2.385833	 28.452760	 0.000004	 27.855690	-46.894310	-169.679300	-17.891750	-57.887350	-5.930109	 72.645930	 53.899920	-68.083140	 2.384659	 28.388700	-0.000001	 29.673570	-21.001490	-13.893810	 46.895560	 32.129460	-1.337945	-6.874323	-5.817429	-3.567352	-91.776150	 78.527400	 180.000000	 16.535460	 44.296590	-42.000720	-3.105284	-0.102539	-0.484744	 10.405640	 2.407630	-5.158743	-4.131196	 21.524690	 0.986298	-5.167839	 0.733520	 3.519257	-1.378229	 35.397820	-2.634230	-13.362520	 17.184950	-8.253703	-25.723730	 3.494682	 7.176305	 89.782140	 78.203900	 179.999900	 1.584884	 60.367950	 6.306698	-9.103251	-0.174969	 0.434432	 94.256840	-16.396250	 3.194228	 5.715225	 19.176060	-3.692089	 5.027514	 0.245388	-9.378011	-2.350882	 35.473990	 5.254307
